<?xml version="1.0" encoding="iso-8859-1"?>
<!-- Generator: Adobe Illustrator 19.0.0, SVG Export Plug-In . SVG Version: 6.00 Build 0)  -->
<svg version="1.1" id="Capa_1" xmlns="http://www.w3.org/2000/svg" xmlns:xlink="http://www.w3.org/1999/xlink" x="0px" y="0px"
	 viewBox="0 0 512.009 512.009" style="enable-background:new 0 0 512.009 512.009;" xml:space="preserve">
<path style="fill:#428DC5;" d="M341.56,365.213c-2.459,0-4.909-0.982-6.716-2.918l-77.834-83.596l-79.256,83.422
	c-3.496,3.67-9.295,3.826-12.974,0.33c-3.67-3.487-3.826-9.304-0.33-12.974l80.036-84.238l-71.558-76.852
	c-23.012-24.718-33.582-58.089-28.994-91.551c4.588-33.462,23.746-62.759,52.565-80.366c38.188-23.333,86.459-21.736,123.013,4.065
	l3.533,2.487c26.608,18.782,43.693,48.143,46.886,80.55s-7.845,64.53-30.269,88.138l-69.989,73.659l78.596,84.422
	c3.45,3.707,3.248,9.515-0.459,12.974C346.046,364.397,343.798,365.213,341.56,365.213z M254.908,18.36
	c-16.883,0-33.802,4.569-48.84,13.763c-24.094,14.726-40.124,39.224-43.959,67.2c-3.835,27.985,5.001,55.887,24.25,76.55
	l70.787,76.036l69.209-72.843c18.754-19.736,27.985-46.601,25.315-73.696c-2.67-27.095-16.956-51.648-39.197-67.347l-3.532-2.487
	C292.774,24.103,273.864,18.36,254.908,18.36z"/>
<g>
	<path style="fill:#FBB540;" d="M473.858,495.237L473.858,495.237c11.001-10.487,11.414-27.911,0.927-38.912l-82.312-86.321
		l-39.839,37.995l82.312,86.321C445.433,505.311,462.857,505.724,473.858,495.237z"/>
	<path style="fill:#FBB540;" d="M339.348,420.651l66.402-63.319c7.331-6.992,7.606-18.608,0.615-25.948l-6.331-6.643
		c-6.992-7.331-18.607-7.606-25.948-0.615l-66.402,63.319c-7.331,6.992-7.606,18.607-0.615,25.948l6.331,6.643
		C320.401,427.367,332.017,427.642,339.348,420.651z"/>
</g>
<polygon style="fill:#EA9D2D;" points="392.473,369.994 352.625,407.989 355.589,411.09 431.652,411.09 "/>
<path style="fill:#277BAA;" d="M339.669,191.699c10.662-11.221,18.653-24.406,23.865-38.591L167.541,364.177
	c3.422,1.45,7.505,0.789,10.212-2.064l79.256-83.422l7.276,7.817l12.983-12.983l-7.597-8.157L339.669,191.699z"/>
<g>
	<path style="fill:#FBB540;" d="M38.132,495.237L38.132,495.237c-11.001-10.487-11.414-27.911-0.927-38.912l82.312-86.321
		l39.839,37.995l-82.312,86.321C66.557,505.311,49.134,505.724,38.132,495.237z"/>
	<path style="fill:#FBB540;" d="M172.642,420.651l-66.402-63.319c-7.331-6.992-7.606-18.608-0.615-25.948l6.331-6.643
		c6.992-7.331,18.608-7.606,25.948-0.615l66.402,63.319c7.331,6.992,7.606,18.607,0.615,25.948l-6.331,6.643
		C191.589,427.367,179.973,427.642,172.642,420.651z"/>
</g>
<polygon style="fill:#EA9D2D;" points="80.339,411.09 156.402,411.09 159.366,407.989 119.517,369.994 "/>
<path d="M20.433,476.189c0.229,9.799,4.267,18.919,11.368,25.682C38.894,508.632,48.014,512,57.125,512
	c9.689,0,19.369-3.808,26.572-11.359l75.981-79.688l6.643,6.331c5.157,4.927,11.873,7.606,18.975,7.606c0.22,0,0.45,0,0.67,0
	c7.349-0.174,14.194-3.202,19.268-8.524l6.331-6.643c10.469-10.992,10.056-28.443-0.927-38.912l-26.572-25.342l72.953-76.779
	l71.219,76.494l-26.874,25.627c-5.322,5.074-8.35,11.919-8.524,19.268c-0.174,7.349,2.523,14.332,7.606,19.653l6.331,6.643
	c5.074,5.322,11.919,8.35,19.268,8.524c0.22,0,0.45,0,0.67,0c7.102,0,13.818-2.679,18.975-7.606l6.643-6.331l75.981,79.688
	c7.203,7.551,16.873,11.359,26.572,11.359c9.111,0,18.231-3.358,25.324-10.13c7.092-6.762,11.13-15.882,11.368-25.682
	c0.229-9.799-3.367-19.112-10.13-26.195l-75.981-79.687l6.643-6.331c10.983-10.478,11.396-27.93,0.927-38.912l-6.331-6.643
	c-10.478-10.983-27.92-11.396-38.912-0.927l-26.251,25.03l-71.843-77.155l69.989-73.659c22.424-23.608,33.462-55.731,30.269-88.138
	c-3.193-32.407-20.277-61.759-46.886-80.55l-3.532-2.487c-36.582-25.828-84.853-27.425-123.041-4.092
	c-28.82,17.607-47.978,46.904-52.565,80.366c-4.588,33.462,5.982,66.833,28.994,91.551l71.558,76.852l-73.705,77.577l-26.553-25.315
	c-10.983-10.487-28.453-10.056-38.912,0.927l-6.331,6.643c-10.478,10.983-10.065,28.443,0.927,38.912l6.643,6.331l-75.981,79.688
	C23.801,457.076,20.204,466.389,20.433,476.189z M468.142,462.646c3.386,3.551,5.184,8.203,5.065,13.102
	c-0.119,4.9-2.129,9.46-5.68,12.836c-7.313,6.982-18.956,6.707-25.948-0.615l-75.981-79.669l14.295-13.634l12.267-11.699
	L468.142,462.646z M380.426,330.769c1.771-1.688,4.055-2.532,6.331-2.532c2.422,0,4.845,0.954,6.643,2.844l6.331,6.643
	c1.688,1.771,2.587,4.101,2.532,6.551s-1.064,4.734-2.835,6.423l-6.643,6.331l-19.387,18.488l-40.371,38.5l0,0
	c-1.771,1.688-4.138,2.514-6.542,2.532c-2.45-0.055-4.734-1.064-6.423-2.844l-6.331-6.643c-1.697-1.78-2.597-4.101-2.532-6.551
	c0.055-2.45,1.064-4.725,2.844-6.423L380.426,330.769z M186.359,175.872c-19.25-20.663-28.086-48.565-24.25-76.55
	c3.835-27.975,19.865-52.474,43.959-67.2c15.038-9.194,31.958-13.763,48.84-13.763c18.947,0,37.857,5.753,54.024,17.167l3.533,2.487
	c22.241,15.699,36.536,40.252,39.197,67.347c2.67,27.104-6.56,53.96-25.315,73.696l-69.2,72.852L186.359,175.872z M112.26,337.715
	l6.331-6.643c1.697-1.771,3.973-2.78,6.423-2.844c0.073,0,0.147,0,0.22,0c2.367,0,4.606,0.89,6.322,2.532l33.196,31.664
	c0,0,0.009,0.009,0.009,0.018c0,0.009,0.009,0.009,0.018,0.009l33.178,31.636c3.661,3.487,3.799,9.313,0.303,12.974l-6.331,6.643
	c-1.697,1.771-3.973,2.78-6.423,2.844c-2.358,0-4.78-0.844-6.542-2.532l-66.411-63.319c-1.771-1.688-2.78-3.973-2.835-6.423
	S110.571,339.495,112.26,337.715z M43.849,462.646l75.981-79.688l12.267,11.699l14.295,13.634l-75.981,79.688
	c-7.001,7.313-18.635,7.588-25.948,0.615c-3.551-3.386-5.56-7.946-5.68-12.836C38.665,470.849,40.463,466.197,43.849,462.646z"/>
<g>
</g>
<g>
</g>
<g>
</g>
<g>
</g>
<g>
</g>
<g>
</g>
<g>
</g>
<g>
</g>
<g>
</g>
<g>
</g>
<g>
</g>
<g>
</g>
<g>
</g>
<g>
</g>
<g>
</g>
</svg>
