<svg id="visual" viewBox="0 0 900 600" width="900" height="600" xmlns="http://www.w3.org/2000/svg" xmlns:xlink="http://www.w3.org/1999/xlink" version="1.1"><g fill="none" stroke="#b2b2b2" stroke-width="2"><circle r="47" cx="636" cy="268"></circle><circle r="2" cx="345" cy="47"></circle><circle r="16" cx="484" cy="594"></circle><circle r="26" cx="303" cy="337"></circle><circle r="17" cx="745" cy="169"></circle><circle r="19" cx="569" cy="151"></circle><circle r="33" cx="385" cy="272"></circle><circle r="43" cx="374" cy="552"></circle><circle r="5" cx="140" cy="204"></circle><circle r="21" cx="862" cy="302"></circle><circle r="26" cx="333" cy="162"></circle><circle r="29" cx="10" cy="257"></circle><circle r="19" cx="204" cy="486"></circle><circle r="25" cx="45" cy="583"></circle><circle r="15" cx="36" cy="357"></circle><circle r="5" cx="690" cy="497"></circle><circle r="21" cx="896" cy="5"></circle><circle r="24" cx="167" cy="381"></circle><circle r="29" cx="219" cy="96"></circle><circle r="19" cx="66" cy="66"></circle><circle r="35" cx="561" cy="520"></circle><circle r="39" cx="752" cy="421"></circle><circle r="29" cx="882" cy="592"></circle><circle r="33" cx="222" cy="597"></circle><circle r="23" cx="833" cy="480"></circle><circle r="10" cx="470" cy="136"></circle><circle r="21" cx="451" cy="351"></circle><circle r="44" cx="584" cy="2"></circle><circle r="24" cx="564" cy="334"></circle><circle r="31" cx="849" cy="166"></circle><circle r="37" cx="462" cy="19"></circle><circle r="20" cx="318" cy="441"></circle><circle r="15" cx="108" cy="462"></circle><circle r="16" cx="176" cy="4"></circle><circle r="12" cx="653" cy="92"></circle><circle r="30" cx="750" cy="585"></circle><circle r="17" cx="255" cy="240"></circle><circle r="3" cx="487" cy="451"></circle><circle r="5" cx="770" cy="59"></circle><circle r="16" cx="742" cy="311"></circle><circle r="40" cx="3" cy="485"></circle><circle r="43" cx="654" cy="396"></circle><circle r="32" cx="523" cy="241"></circle><circle r="12" cx="24" cy="158"></circle><circle r="8" cx="643" cy="584"></circle></g></svg>