<?xml version="1.0" encoding="iso-8859-1"?>
<!-- Generator: Adobe Illustrator 16.0.0, SVG Export Plug-In . SVG Version: 6.00 Build 0)  -->
<!DOCTYPE svg PUBLIC "-//W3C//DTD SVG 1.1//EN" "http://www.w3.org/Graphics/SVG/1.1/DTD/svg11.dtd">
<svg version="1.1" id="Capa_1" xmlns="http://www.w3.org/2000/svg" xmlns:xlink="http://www.w3.org/1999/xlink" x="0px" y="0px"
	 width="193.316px" height="193.316px" viewBox="0 0 193.316 193.316" style="enable-background:new 0 0 193.316 193.316;"
	 xml:space="preserve">
<g>
	<g>
		<path d="M152.506,92.701c5.699-9.206,7.44-21.046,4.174-31.233c-2.713-8.456-9.414-14.681-17.338-18.256
			c-8.306-3.746-22.977-5.076-28.791,3.553C94.104,53.199,89.444,72.59,95.037,88.354c6.453,18.187,25.857,24.68,42.924,17.249
			c2.146-0.935,4.131-2.117,5.969-3.48c6.779,8.843,13.383,17.613,21.172,25.65c4.511,4.655,16.283,17.489,23.808,11.373
			C207.272,124.222,162.983,98.28,152.506,92.701z M135.156,100.807c-14.551,7.314-30.15-0.821-35.248-15.379
			c-4.659-13.305,0.408-27.097,12.078-34.381c0.271-0.034,0.546-0.11,0.822-0.269c9.687-5.61,18.457-6.095,28.314-0.245
			c6.119,3.631,9.737,9.94,11.201,16.724C155.23,80.73,147.04,94.833,135.156,100.807z M184.983,135.349
			c-6.478,2.065-18.556-13.667-22.106-17.576c-5.342-5.882-10.373-12.52-16.449-17.713c1.039-0.949,2-1.979,2.91-3.052
			c0.047,0.032,0.084,0.069,0.135,0.099c7.463,4.5,14.889,8.958,21.896,14.165C174.264,113.423,195.857,131.883,184.983,135.349z"/>
		<path d="M144.961,70.07c-1.638-3.627-5.494-8.45-9.838-7.852c-1.424,0.196-1.246,2.067-0.355,2.713
			c1.547,1.12,3.908,4.129,5.127,6.299c0.912,1.624,1.365,3.384,1.304,5.238c-0.058,1.718-1.483,2.982-1.646,4.746
			c-0.142,1.52,1.5,2.372,2.783,2.12C148.094,82.2,146.635,73.778,144.961,70.07z"/>
		<path d="M145.312,115.008c-0.82-2.514-4.973-2.287-5.008,0.766c-0.043,3.728,0.565,7.572,1.272,11.326
			c-7.637-5.618-19.385-5.407-28.169-4.57c-10.341,0.985-20.996,3.324-31.112,6.241c0.518-17.83-0.619-36.064-1.144-53.907
			c-0.189-6.424-0.813-12.84-1.177-19.256c-0.144-2.545,0.389-5.942,0.055-8.863c0.525-0.443,0.829-1.132,0.74-2.009
			c9.696-7.086,19.339-12.391,31.333-5.46c2.962,1.711,5.357-2.608,2.637-4.512c-12.329-8.626-25.752-3.735-35.304,5.903
			c-3.997-8.804-13.45-13.754-22.153-17.384c-7.511-3.132-25.886-9.447-31.38,0.591c-2.292,4.187-1.841,9.425-2.158,14.053
			c-0.042,0.615-0.065,1.231-0.103,1.847c-9.137-3.071-12.944,6.39-14.168,15.183c-2.35-0.472-4.68-0.358-7.101-0.443
			c-1.296-0.046-2.305,1.098-2.336,2.336c-0.371,14.793,2.179,29.433,1.564,44.241c-0.612,14.731-1.949,29.392-1.031,44.144
			c0.088,1.422,1.023,2.193,2.37,2.37c15.273,2.006,30.174-3.543,45.325-4.413c11.875-0.681,27.619-5.381,38.908-0.233
			c0.495,0.226,0.977,0.283,1.428,0.234c0.139,1.533,0.371,3.05,0.509,4.421c0.77,7.72,2.163,15.35,2.41,23.117
			c0.051,1.618,2.348,2.99,3.536,1.465c1.612-2.068,3.161-4.167,4.653-6.31c1.563,2.693,3.033,5.438,4.686,8.082
			c1.029,1.644,3.511,0.948,3.584-0.971c0.381-9.981-0.346-19.932-0.773-29.895c13.188,3.521,27.361,3.438,40.668,6.278
			c1.301,0.278,2.803-0.367,3.121-1.772C151.928,143.474,151.329,116.321,145.312,115.008z M9.035,60.035
			c-0.18-0.197-0.394-0.348-0.637-0.46c-0.022-0.344-0.113-0.639-0.255-0.889c0.318-0.006,0.634-0.028,0.953-0.022
			C9.066,59.134,9.051,59.583,9.035,60.035z M61.038,123.771c-15.571-2.343-29.446,1.257-44.117,5.749
			c-2.509-19.268-1.724-38.721-2.505-58.097c-0.226-5.592-0.536-11.142-0.038-16.731c0.617-6.92,3.24-9.849,9.009-10.349
			c-0.406,8.43-0.525,16.875-0.592,25.311c-0.067,8.287-0.048,16.484-0.726,24.748c-0.615,7.489-1.408,15.223,1.113,22.448
			c0.079,0.226,0.197,0.414,0.333,0.581c-0.094,0.697,0.218,1.4,1.105,1.55c8.366,1.417,16.926,1.076,25.362,1.771
			c5.384,0.443,9.803,1.559,13.799,3.423C62.694,124.01,61.751,123.879,61.038,123.771z M26.944,115.79
			c-0.406-10.461,0.938-20.767,1.448-31.201c0.655-13.406,0.036-26.892,0.579-40.316c0.211-5.222,0.23-10.665,0.972-15.847
			c1.115-7.792,15.816-3.027,20.11-1.79c9.597,2.765,20.096,7.886,24.902,17.027c-1.58,2.149-1.052,5.253-1,7.989
			c0.136,7.093,0.861,14.178,1.241,21.261c0.95,17.706-0.303,35.633,2.094,53.253C66.809,113.096,42.017,114.836,26.944,115.79z
			 M101.531,161.234c-0.803-1.309-2.6-1.244-3.416,0c-0.87,1.324-1.789,2.606-2.734,3.868c-0.355-4.463-0.991-8.901-1.623-13.339
			c-0.646-4.536-0.046-11.146-1.919-15.55c3.839-0.359,7.596-1.004,9.365-1.077c0.568-0.024,1.142-0.05,1.714-0.077
			c0.088,10.254,1.051,20.473,1.229,30.719C103.301,164.252,102.447,162.726,101.531,161.234z M101.204,130.776
			c-0.345,0.015-1.924,0.088-4.066,0.234c3.424-0.778,6.834-1.556,10.223-2.146c12.386-2.153,22.385-1.398,33.302,4.361
			c0.056,0.226,0.113,0.45,0.166,0.676C128.447,128.894,114.389,130.227,101.204,130.776z"/>
	</g>
</g>
<g>
</g>
<g>
</g>
<g>
</g>
<g>
</g>
<g>
</g>
<g>
</g>
<g>
</g>
<g>
</g>
<g>
</g>
<g>
</g>
<g>
</g>
<g>
</g>
<g>
</g>
<g>
</g>
<g>
</g>
</svg>
