<?xml version="1.0" encoding="iso-8859-1"?>
<!-- Generator: Adobe Illustrator 16.0.0, SVG Export Plug-In . SVG Version: 6.00 Build 0)  -->
<!DOCTYPE svg PUBLIC "-//W3C//DTD SVG 1.1//EN" "http://www.w3.org/Graphics/SVG/1.1/DTD/svg11.dtd">
<svg version="1.1" id="Capa_1" xmlns="http://www.w3.org/2000/svg" xmlns:xlink="http://www.w3.org/1999/xlink" x="0px" y="0px"
	 width="189.23px" height="189.229px" viewBox="0 0 189.23 189.229" style="enable-background:new 0 0 189.23 189.229;"
	 xml:space="preserve">
<g>
	<g>
		<path d="M98.658,180.438c-2.199-5.881-6.622-9.967-11.099-14.183c-0.855-0.806-1.834-0.975-2.693-0.743
			c-0.781-0.104-1.598,0.149-1.957,0.929c-2.801,6.088-4.385,12.748-6.221,19.171c-0.647,2.265,1.465,3.952,3.561,3.561
			c5.642-1.052,10.943-3.29,16.358-5.122C98.016,183.574,99.243,182.001,98.658,180.438z"/>
		<path d="M171.074,106.831c-5.243-4.242-10.188-8.674-14.634-13.758c-1.163-1.33-3.006-0.944-4.216,0
			c-22.186,17.317-35.915,45.272-61.877,57.74c-1.536,0.737-1.35,2.725-0.362,3.762c-0.838,0.845-1.116,2.301-0.11,3.343
			c3.1,3.208,6.392,6.229,9.457,9.476c0.869,0.921,2.258,2.694,3.786,3.853c-0.691,2.426,2.558,4.363,4.57,3.14
			c26.02-15.801,42.028-42.405,63.385-63.322C172.148,110.011,172.334,107.852,171.074,106.831z"/>
		<path d="M157.328,145.483c-1.178-0.855-2.73-0.135-3.456,0.905c-0.271,0.39-0.446,0.86-0.584,1.364
			c-1.113-0.292-2.397,0.03-2.952,1.163c-4.318,8.836,3.119,22.146-7.478,28.099c-5.999,3.371-18.711-3.074-22.78,2.937
			c-0.499,0.737,0.438,1.418,1.108,1.108c-0.137,0.062-0.133,0.178-0.043,0.317c-0.347,0.033-0.684,0.074-0.999,0.129
			c-2.328,0.403-2.234,4.117,0,4.592c9.936,2.114,30.692,5.745,36.621-5.472c3.073-5.814,2.901-13.84,3.008-20.213
			C159.839,156.449,161.038,148.175,157.328,145.483z"/>
		<path d="M154.711,6.431c-6.706-6.547-18.86-5.965-27.431-6.303c-18.979-0.75-37.668,1.992-56.564,3.194
			c-10.377,0.661-19.747-2.913-27.2,5.925C34.095,20.419,31.255,36.114,24.606,48.9c-4.106,7.895-9.27,19.05-5.198,27.38
			c-3.44,16.374-0.623,53.346-0.549,58.876c0.173,12.767-3.523,26.852-0.166,39.196c1.983,7.292,8.499,11.143,15.227,13.277
			c10.844,3.442,21.941-4.657,32.758-0.23c2.98,1.219,5.079-3.82,2.188-5.191c-0.173-0.082-0.355-0.145-0.531-0.22
			c0.011-0.392-0.136-0.785-0.558-1.114c-7.576-5.9-17.438-3.77-26.413-3.645c-16.178,0.225-13.505-11.271-12.35-22.87
			c2.66-26.716,5.82-55.344,1.011-81.938C41.284,64.715,53.5,57.45,62.496,47.116c11.19-12.853-2.611-22.986-8.783-34.426
			c0.041-0.093,0.087-0.184,0.128-0.278c29.23,3.013,58.1-8.271,87.284-3.486c16.068,2.634,13.332,18.518,11.327,30.727
			c-2.042,12.437-3.652,24.833-3.773,37.46c-0.035,3.697,5.309,3.937,6.051,0.734c3.925-2.895,3.53-12.236,3.968-16.165
			c1.113-9.977,1.834-20.047,2.126-30.081C161.083,22.756,161.54,13.095,154.711,6.431z M24.635,64.568
			c-0.14,1.369-0.164,2.706-0.005,3.976c-0.074-0.012-0.138-0.046-0.214-0.052c-0.193-0.015-0.372,0.032-0.555,0.059
			C24.028,67.217,24.284,65.888,24.635,64.568z M58.943,31.105c4.714,7.272-0.957,12.473-6.065,17.336
			c-7.04,6.703-15.686,11.696-23.055,18.013c0.656-2.626,1.717-5.258,2.451-7.374c2.261-6.522,5.184-12.799,8.123-19.037
			c3.262-6.924,6.88-13.7,10.207-20.604C53.233,23.418,56.342,27.093,58.943,31.105z"/>
		<path d="M128.542,30.63c-3.505-4.252-15.244-1.85-19.919-1.513c-5.962,0.43-15.58,0.093-20.06,4.599
			c-1.353,1.36,0.076,3.158,1.705,2.929c5.902-0.831,12.297-1.325,18.354-1.66c6.12-0.338,12.887,0.744,18.831-0.234
			C129.466,34.42,129.589,31.898,128.542,30.63z"/>
		<path d="M134.353,49.545c-1.546-1.176-3.121-0.607-4.972-0.732c-0.488-0.033-0.905,0.127-1.271,0.366
			c-6.06,0.052-12.119,0.102-18.179,0.181c-5.557,0.072-11.483-0.627-16.541,1.582c-0.926,0.405-0.926,2.037,0,2.442
			c4.571,1.997,9.626,1.492,14.671,1.558c8.253,0.108,16.506,0.183,24.759,0.253C136.112,55.222,136.593,51.25,134.353,49.545z"/>
		<path d="M132.822,68.13c-8.353-0.106-16.727,0.103-25.079,0.249c-5.676,0.099-13.494-1.211-18.646,1.502
			c-0.914,0.481-0.914,1.94,0,2.421c5.153,2.714,12.968,1.4,18.646,1.502c8.353,0.15,16.728,0.355,25.079,0.249
			c2.003-0.026,2.889-1.496,2.828-2.961C135.71,69.626,134.825,68.155,132.822,68.13z"/>
		<path d="M126.621,92.711c-4.9-1.228-10.663-0.563-15.717-0.907c-8.829-0.602-17.643-1.383-26.478-1.908
			c-9.759-0.58-31.226-3.928-38.609,4.964c-1.439,1.733,0.384,4.568,2.519,3.265c10.525-6.423,28.506-2.958,40.067-2.102
			c8.05,0.596,16.084,1.403,24.136,1.995c4.598,0.338,10.411,1.502,14.693-0.623C129.24,96.397,128.688,93.228,126.621,92.711z"/>
		<path d="M84.055,108.728c-4.616-2.6-13.607-0.475-18.733-0.145c-5.483,0.354-12.805,0.26-17.427,3.622
			c-1.124,0.817-0.447,2.451,0.931,2.209c5.977-1.051,12.256-1.041,18.304-1.121c4.82-0.063,12.645,1.728,16.925-0.684
			C85.515,111.786,85.516,109.549,84.055,108.728z"/>
		<path d="M88.151,126.72c-13.916,4.098-27.333,1.344-41.366,0.771c-1.098-0.045-1.631,1.383-0.88,2.125
			c4.311,4.262,12.455,4.207,18.104,4.614c8.508,0.612,17.433,0.386,25.728-1.759C93.458,131.511,91.841,125.61,88.151,126.72z"/>
	</g>
</g>
<g>
</g>
<g>
</g>
<g>
</g>
<g>
</g>
<g>
</g>
<g>
</g>
<g>
</g>
<g>
</g>
<g>
</g>
<g>
</g>
<g>
</g>
<g>
</g>
<g>
</g>
<g>
</g>
<g>
</g>
</svg>
