<svg id="visual" viewBox="0 0 900 600" width="900" height="600" xmlns="http://www.w3.org/2000/svg" xmlns:xlink="http://www.w3.org/1999/xlink" version="1.1"><rect x="0" y="0" width="900" height="600" fill="#FFFFFF"></rect><defs><linearGradient id="grad1_0" x1="33.3%" y1="0%" x2="100%" y2="100%"><stop offset="20%" stop-color="#ffffff" stop-opacity="1"></stop><stop offset="80%" stop-color="#ffffff" stop-opacity="1"></stop></linearGradient></defs><defs><linearGradient id="grad2_0" x1="0%" y1="0%" x2="66.7%" y2="100%"><stop offset="20%" stop-color="#ffffff" stop-opacity="1"></stop><stop offset="80%" stop-color="#ffffff" stop-opacity="1"></stop></linearGradient></defs><g transform="translate(900, 0)"><path d="M0 270.4C-32.9 238.9 -65.8 207.4 -109 188.8C-152.2 170.2 -205.6 164.5 -234.2 135.2C-262.8 105.9 -266.6 52.9 -270.4 0L0 0Z" fill="#7a78ff"></path></g><g transform="translate(0, 600)"><path d="M0 -270.4C52.4 -266.3 104.7 -262.1 135.2 -234.2C165.7 -206.2 174.2 -154.5 193.1 -111.5C212 -68.5 241.2 -34.3 270.4 0L0 0Z" fill="#7a78ff"></path></g></svg>